# xmcd CD database file
#
# Track frame offsets:
#	150
#	21407
#	35582
#	49843
#	71653
#	87835
#	105203
#	115888
#	135578
#	155373
#
# Disc length: 2275 seconds
#
# Revision: 0
# Processed by: cddbd v1.5.1PL0 Copyright (c) Steve Scherf et al.
# Submitted via: CDex 1.51
#
DISCID=7d08e10a
DTITLE=Dennis O'Rourke - Maybe If I Fell in Love
DYEAR=1900
DGENRE=Blues
TTITLE0=Maybe if I Fell in Love
TTITLE1=Can't Keep my Feet from Dancing the Blues
TTITLE2=Honky Tonk Moon
TTITLE3=If You See My Baby
TTITLE4=Rocking My Baby to Sleep
TTITLE5=Burnt Out Blonde
TTITLE6=I Don't Want You Near Me Anymore
TTITLE7=Play With Me
TTITLE8=Hold On To Each Other
TTITLE9=Honey Baxter
EXTD=
EXTT0=
EXTT1=
EXTT2=
EXTT3=
EXTT4=
EXTT5=
EXTT6=
EXTT7=
EXTT8=
EXTT9=
PLAYORDER=
